<svg width="110" height="44" viewBox="0 0 110 44" fill="none" xmlns="http://www.w3.org/2000/svg">
<g clip-path="url(#clip0_38_1353)">
<path d="M101.603 26.4562C103.837 26.4562 103.93 26.3487 104.236 29.1408C96.905 29.1408 77.8139 29.9673 68.4365 30.8332C65.9806 31.0351 64.1534 31.3938 64.1338 31.3976L64.7148 30.1369C64.8367 29.8492 64.7763 29.4512 64.3173 29.5246L62.9433 29.7052C62.4844 29.7786 62.4535 30.066 62.5156 30.4269L61.9658 31.6877L61.1093 31.8322L60.8037 32.5881L61.6289 32.4435L60.8037 34.3898C60.6913 34.7198 60.742 35.0754 61.1699 35.0021L63.9492 34.6047C64.4392 34.5313 64.4391 33.8823 64.3769 33.7384L63.0029 33.9191L63.8271 32.1164L68.0732 31.505L66.3017 34.8556C64.4899 38.2796 64.2457 38.7472 59.8476 39.5031L51.998 40.8742C47.5687 41.6329 47.3536 41.4156 45.7353 37.6672L44.54 34.8918C32.3828 36.9225 17.8757 40.6231 8.83297 43.9738C7.52071 41.0913 7.30546 38.9653 9.71969 38.3166C18.5162 35.9389 33.8813 32.4104 44.7861 31.0002C45.214 29.7761 45.7638 29.3417 48.9716 28.7297C53.8862 27.7904 62.4916 26.8115 66.0771 26.5295C68.429 26.349 68.8875 26.6735 69.4062 27.9709C77.2872 27.3927 94.5151 26.4562 101.603 26.4562ZM53.3838 31.9162C52.674 31.9611 52.0021 32.3072 51.4912 32.8898L51.582 32.672C51.7037 32.4322 51.6433 32.0014 51.1845 32.1086L48.3164 32.672C47.7978 32.7793 47.8265 33.5018 47.8886 33.6457L49.2636 33.3947L48.042 36.215C47.9201 36.5449 47.9797 36.971 48.4384 36.8273L49.8125 36.5754C50.2403 36.4315 50.2721 36.1805 50.2099 35.8195L50.872 34.3078C51.2687 33.6959 51.6372 33.3349 52.0029 33.2277C52.3086 33.1321 52.4927 33.3722 52.3398 33.6964L51.5146 35.5685C51.3927 35.8561 51.455 36.2877 51.8515 36.1808L53.2861 35.8986C53.6828 35.7547 53.7145 35.5037 53.6523 35.1427L54.4453 33.4845C54.7799 32.7991 54.3232 31.9331 53.3838 31.9162ZM58.1123 31.2482C57.1036 31.3554 55.5762 31.826 55.0263 33.3742C54.565 34.5644 55.1482 35.8251 57.1943 35.7179C58.172 35.6474 59.362 35.2131 60.1269 34.4572C60.1754 34.4169 60.2146 34.362 60.2392 34.298C60.2638 34.2343 60.2735 34.1635 60.2675 34.0939C60.2613 34.0242 60.2391 33.9581 60.2041 33.9015C60.1689 33.8448 60.1218 33.8005 60.0673 33.7726C59.3864 34.3171 58.5958 34.6406 57.7754 34.7091C57.0726 34.7797 56.7978 34.4913 56.7978 34.0597C57.2883 34.0964 59.2743 34.0594 59.8838 32.5451C60.4021 31.2113 58.5903 31.2115 58.1123 31.2482ZM58.2666 31.9728C58.4458 31.9728 58.6277 32.0434 58.5058 32.4045C58.3241 32.7994 57.6524 33.5915 56.8613 33.631C56.8998 33.4923 56.9513 33.359 57.0146 33.2336C57.2895 32.6583 57.6262 32.1167 58.2666 31.9728ZM26.3193 1.2277C34.1047 -0.419474 47.5427 -1.36705 45.6806 4.93961C45.1785 6.62335 43.0087 7.97748 40.4511 9.10563C41.7393 8.81798 42.9199 8.61136 43.8759 8.507C46.2806 8.25315 49.0634 9.09165 49.5869 11.0265L53.5546 10.0588L59.1767 8.69059C61.3447 8.18572 61.2228 9.80751 60.7041 10.9611L57.3437 18.7121C57.621 19.9728 57.4366 21.1968 55.9091 21.5578L50.29 23.4679C48.4279 23.8995 48.2742 22.3473 48.7929 21.1232L52.0966 13.4435L48.8623 14.2248C45.4369 20.8948 35.3365 24.6718 31.9609 23.8966C29.9745 23.4284 28.7839 20.8334 31.2578 18.6701C33.0529 17.0793 36.8444 15.4429 40.7861 14.0129C40.7762 11.4071 35.7971 12.9888 33.8847 13.7306C29.5656 15.4567 23.5471 19.3097 22.3515 21.38L20.1093 26.4572L14.4892 27.8283C12.3216 28.333 12.4433 26.7113 12.9619 25.5578L19.4687 11.0011C19.1938 9.73487 19.3728 8.50782 20.8974 8.14664L26.2431 6.84879C28.1047 6.37249 28.2888 7.96856 27.7392 9.19254L25.0742 15.2316C25.9194 14.59 26.8088 14.0322 27.7324 13.5646C32.8378 10.8345 36.1795 7.96046 37.0019 5.62516C38.1015 2.52541 29.8547 3.35481 24.9951 4.4943C17.2097 6.38123 5.72372 11.8952 1.5693 15.2121C-0.632216 13.1926 0.164042 9.94849 2.17672 8.94157C10.7819 4.65162 18.0726 2.99334 26.3193 1.2277ZM72.6132 2.62907C74.4753 2.19753 74.629 3.74871 74.1103 4.97282L70.5244 13.299C75.623 9.6154 78.5611 8.02437 79.8925 7.64078C82.3973 6.88508 82.6717 8.00224 82.4589 10.7775C80.1022 11.2778 77.8136 12.1518 75.6562 13.3771L78.0898 16.508C78.7232 17.3005 79.4402 17.7575 81.1132 17.1935L81.9336 16.9113C81.9795 15.8507 82.1992 14.8106 82.581 13.8488C85.1411 8.62238 90.5245 6.49517 94.4638 6.06364C96.4193 5.84929 103.781 5.88397 101.826 11.0031C100.542 14.3198 96.328 15.6875 93.2421 16.0119C92.2956 16.119 90.9831 16.1187 91.3798 14.6408L91.6191 13.7414C93.1106 13.3437 95.2811 12.0831 95.9218 10.5685C96.5027 9.20062 95.7092 8.73234 94.8535 8.87614C92.7166 9.27382 91.4016 11.544 90.3642 13.6339C88.8679 16.5785 89.5443 19.2103 93.8466 18.9933C99.5596 18.7056 104.508 17.0468 108.693 14.1642C109.609 15.8226 109.305 16.6406 108.18 17.5177C104.513 20.3297 96.785 22.3829 91.4091 22.383C86.9369 22.383 84.0205 21.478 82.7177 19.6476L77.3271 21.591C75.6778 22.1663 73.9356 21.9856 72.8671 20.4005L69.3838 15.967L69.5058 15.6535L68.375 18.2736C68.6522 19.5371 68.4686 20.7611 66.9414 21.1222L61.5937 22.4543C59.7321 22.9306 59.5791 21.3345 60.0976 20.1105L65.8349 6.77457C65.5577 5.51105 65.7413 4.28701 67.2685 3.92594L72.6132 2.62907ZM59.6045 0.578284C63.2091 -0.242484 63.4226 1.73266 62.6601 3.42496C61.9574 5.01277 60.9789 6.1773 58.5361 6.74137C54.9009 7.61547 54.6884 5.62485 55.4531 3.92985C56.1534 2.34481 57.1403 1.19036 59.6045 0.578284Z" fill="#1D1D1D"/>
</g>
<defs>
<clipPath id="clip0_38_1353">
<rect width="109" height="44" fill="white" transform="translate(0.25)"/>
</clipPath>
</defs>
</svg>
